<?xml version="1.0" encoding="UTF-8" standalone="no"?>
<!DOCTYPE svg PUBLIC "-//W3C//DTD SVG 1.1//EN" "http://www.w3.org/Graphics/SVG/1.1/DTD/svg11.dtd">
<svg width="100%" height="100%" viewBox="0 0 3000 3000" version="1.1" xmlns="http://www.w3.org/2000/svg" xmlns:xlink="http://www.w3.org/1999/xlink" xml:space="preserve" xmlns:serif="http://www.serif.com/" style="fill-rule:evenodd;clip-rule:evenodd;stroke-linejoin:round;stroke-miterlimit:2;">
    <g transform="matrix(1.14345,0,0,1.14345,-256.208,-178.651)">
        <g transform="matrix(1,0,0,1,10.3909,458.064)">
            <g transform="matrix(9.76494,0,0,9.76494,-13087.7,-13903)">
                <path d="M1434.8,1555.36C1446.43,1555.36 1455.87,1564.8 1455.87,1576.43C1455.87,1588.06 1446.43,1597.5 1434.8,1597.5C1423.17,1597.5 1413.73,1588.06 1413.73,1576.43C1413.73,1564.8 1423.17,1555.36 1434.8,1555.36ZM1434.8,1562.12C1442.7,1562.12 1449.12,1568.53 1449.12,1576.43C1449.12,1584.33 1442.7,1590.74 1434.8,1590.74C1426.9,1590.74 1420.49,1584.33 1420.49,1576.43C1420.49,1568.53 1426.9,1562.12 1434.8,1562.12Z" style="fill:rgb(47,47,47);"/>
            </g>
            <g transform="matrix(9.76494,0,0,9.76494,-13087.7,-13903)">
                <path d="M1510,1576.44C1510,1575.77 1525.66,1560.78 1531.4,1555.04L1540,1555.04C1530.71,1563.12 1518.66,1576.37 1518.6,1576.44C1518.66,1576.51 1530.71,1589.76 1540,1597.84L1531.4,1597.84C1526.34,1592.78 1510,1577.11 1510,1576.44Z" style="fill:rgb(47,47,47);"/>
            </g>
            <g transform="matrix(9.76494,0,0,9.76494,-13087.7,-13903)">
                <path d="M1385,1590.93C1397.31,1591.01 1404.5,1578.84 1404.5,1582.43C1404.5,1586.74 1394.27,1596.39 1390,1597.57L1371,1597.57C1371,1597.57 1374.5,1592.2 1377.5,1590.93L1385,1590.93ZM1385,1562L1377.5,1562C1374.5,1560.73 1371,1555.36 1371,1555.36L1390,1555.36C1394.27,1556.54 1404.5,1566.19 1404.5,1570.5C1404.5,1574.31 1397.31,1561.92 1385,1562Z" style="fill:rgb(47,47,47);"/>
            </g>
            <g transform="matrix(9.76494,0,0,9.76494,-13087.7,-13903)">
                <path d="M1465.5,1576.37C1465.53,1571.05 1469.31,1555 1487,1555C1492.26,1555 1498.59,1556.99 1503,1562C1504.38,1563.57 1498.55,1565.73 1496.5,1565C1493.88,1564.07 1490.01,1562.5 1486.5,1562.5C1476.13,1562.5 1473,1570.47 1473,1576.43L1473,1576.57C1473.05,1582.52 1476.21,1590.36 1486.5,1590.36C1490.01,1590.36 1493.88,1588.79 1496.5,1587.86C1498.55,1587.13 1504.38,1589.29 1503,1590.86C1498.59,1595.87 1492.26,1597.86 1487,1597.86C1469.24,1597.86 1465.5,1581.69 1465.5,1576.43L1465.5,1576.37Z" style="fill:rgb(47,47,47);"/>
            </g>
            <g transform="matrix(9.76494,0,0,9.76494,-13087.7,-13903)">
                <path d="M1546.5,1555.5L1567.45,1576.43L1588.36,1555.5L1588.36,1597.5L1582,1597.5L1582,1572.5L1567.45,1587.05L1546.5,1565L1546.5,1555.5Z" style="fill:rgb(47,47,47);"/>
            </g>
            <g transform="matrix(10.6527,0,0,10.6527,-14517,-15302.9)">
                <path d="M1602.45,1577C1600.33,1574.99 1599,1572.15 1599,1569C1599,1562.93 1603.93,1558 1610,1558C1616.07,1558 1621,1562.93 1621,1569C1621,1572.15 1619.67,1574.99 1617.55,1577C1619.67,1579.01 1621,1581.85 1621,1585C1621,1591.07 1616.07,1596 1610,1596C1603.93,1596 1599,1591.07 1599,1585C1599,1581.85 1600.33,1579.01 1602.45,1577ZM1610,1580C1612.76,1580 1615,1582.24 1615,1585C1615,1587.76 1612.76,1590 1610,1590C1607.24,1590 1605,1587.76 1605,1585C1605,1582.24 1607.24,1580 1610,1580ZM1610,1564C1612.76,1564 1615,1566.24 1615,1569C1615,1571.76 1612.76,1574 1610,1574C1607.24,1574 1605,1571.76 1605,1569C1605,1566.24 1607.24,1564 1610,1564Z" style="fill:rgb(47,47,47);"/>
            </g>
            <g transform="matrix(9.76494,0,0,9.76494,-15265.3,-13990.9)">
                <circle cx="1610" cy="1585" r="5" style="fill:rgb(47,47,47);"/>
            </g>
        </g>
        <g transform="matrix(1,0,0,1,-48.2183,478.064)">
            <g transform="matrix(0.537471,0,0,0.537471,769.548,-65.5439)">
                <path d="M1454.33,1454.77L1454.33,1692L1088.83,1897.6L1515.84,2147.13L2050.04,1840.78L2050.04,1717.77L1528.72,2016.51L1326.05,1897.6L2252.12,1362.22L2252.12,1959.69L1515.84,2383.18L778.963,1959.69L778.963,1840.78L1454.33,1454.77Z" style="fill:rgb(47,47,47);"/>
            </g>
            <g transform="matrix(0.537471,0,0,0.537471,769.548,-65.5439)">
                <path d="M1577.93,1619.66L1577.93,1385.95L1953.39,1167.46L1842.68,1103.03L778.963,1713.38L778.963,1480.25L1632.99,986.465L1515.54,917.347L778.963,1340.84L778.963,1103.03L1515.54,680.118L2252.12,1103.03L2252.12,1232.6L1577.93,1619.66Z" style="fill:url(#_Linear1);"/>
            </g>
        </g>
    </g>
    <defs>
        <linearGradient id="_Linear1" x1="0" y1="0" x2="1" y2="0" gradientUnits="userSpaceOnUse" gradientTransform="matrix(1473.16,0,0,1033.26,778.963,1196.75)"><stop offset="0" style="stop-color:rgb(255,158,31);stop-opacity:1"/><stop offset="1" style="stop-color:rgb(255,194,113);stop-opacity:1"/></linearGradient>
    </defs>
</svg>
